<mxfile host="app.diagrams.net" modified="2024-05-17T09:02:38.642Z" agent="Mozilla/5.0 (Windows NT 10.0; Win64; x64) AppleWebKit/537.36 (KHTML, like Gecko) Chrome/124.0.0.0 Safari/537.36" etag="EX6p443tJGqGowHW2zL3" version="24.4.3" type="device">
  <diagram name="Page-1" id="gDf9zseBwsDJ5p1qlzxx">
    <mxGraphModel dx="2074" dy="1140" grid="1" gridSize="10" guides="1" tooltips="1" connect="1" arrows="1" fold="1" page="1" pageScale="1" pageWidth="827" pageHeight="1169" math="0" shadow="0">
      <root>
        <mxCell id="0" />
        <mxCell id="1" parent="0" />
        <mxCell id="w8vvWGGkFElnzvA0du0P-30" value="" style="rounded=0;whiteSpace=wrap;html=1;dashed=1;" vertex="1" parent="1">
          <mxGeometry x="120" y="60" width="560" height="380" as="geometry" />
        </mxCell>
        <mxCell id="w8vvWGGkFElnzvA0du0P-2" value="" style="rounded=0;whiteSpace=wrap;html=1;" vertex="1" parent="1">
          <mxGeometry x="160" y="120" width="120" height="60" as="geometry" />
        </mxCell>
        <mxCell id="w8vvWGGkFElnzvA0du0P-3" value="Power supply" style="text;html=1;align=center;verticalAlign=middle;whiteSpace=wrap;rounded=0;" vertex="1" parent="1">
          <mxGeometry x="180" y="135" width="80" height="30" as="geometry" />
        </mxCell>
        <mxCell id="w8vvWGGkFElnzvA0du0P-4" value="" style="rounded=0;whiteSpace=wrap;html=1;" vertex="1" parent="1">
          <mxGeometry x="160" y="350" width="120" height="60" as="geometry" />
        </mxCell>
        <mxCell id="w8vvWGGkFElnzvA0du0P-5" value="" style="rounded=0;whiteSpace=wrap;html=1;" vertex="1" parent="1">
          <mxGeometry x="320" y="350" width="120" height="60" as="geometry" />
        </mxCell>
        <mxCell id="w8vvWGGkFElnzvA0du0P-6" value="" style="rounded=0;whiteSpace=wrap;html=1;" vertex="1" parent="1">
          <mxGeometry x="480" y="350" width="120" height="60" as="geometry" />
        </mxCell>
        <mxCell id="w8vvWGGkFElnzvA0du0P-7" value="" style="rounded=0;whiteSpace=wrap;html=1;" vertex="1" parent="1">
          <mxGeometry x="320" y="180" width="120" height="120" as="geometry" />
        </mxCell>
        <mxCell id="w8vvWGGkFElnzvA0du0P-9" value="ESP32" style="text;html=1;align=center;verticalAlign=middle;whiteSpace=wrap;rounded=0;" vertex="1" parent="1">
          <mxGeometry x="350" y="225" width="60" height="30" as="geometry" />
        </mxCell>
        <mxCell id="w8vvWGGkFElnzvA0du0P-13" value="" style="endArrow=none;html=1;rounded=0;exitX=1;exitY=0.167;exitDx=0;exitDy=0;exitPerimeter=0;" edge="1" parent="1" source="w8vvWGGkFElnzvA0du0P-7">
          <mxGeometry width="50" height="50" relative="1" as="geometry">
            <mxPoint x="390" y="610" as="sourcePoint" />
            <mxPoint x="580" y="200" as="targetPoint" />
          </mxGeometry>
        </mxCell>
        <mxCell id="w8vvWGGkFElnzvA0du0P-16" value="" style="group" vertex="1" connectable="0" parent="1">
          <mxGeometry x="320" y="620" width="120" height="60" as="geometry" />
        </mxCell>
        <mxCell id="w8vvWGGkFElnzvA0du0P-15" value="" style="rounded=0;whiteSpace=wrap;html=1;perimeterSpacing=1;strokeWidth=5;strokeColor=#ff0000;" vertex="1" parent="w8vvWGGkFElnzvA0du0P-16">
          <mxGeometry width="120" height="60" as="geometry" />
        </mxCell>
        <mxCell id="w8vvWGGkFElnzvA0du0P-14" value="DUT" style="text;html=1;align=center;verticalAlign=middle;whiteSpace=wrap;rounded=0;perimeterSpacing=10;" vertex="1" parent="w8vvWGGkFElnzvA0du0P-16">
          <mxGeometry x="30" y="15" width="60" height="30" as="geometry" />
        </mxCell>
        <mxCell id="w8vvWGGkFElnzvA0du0P-21" value="" style="group" vertex="1" connectable="0" parent="1">
          <mxGeometry x="560" y="110" width="70" height="90" as="geometry" />
        </mxCell>
        <mxCell id="w8vvWGGkFElnzvA0du0P-10" value="" style="endArrow=none;html=1;rounded=0;" edge="1" parent="w8vvWGGkFElnzvA0du0P-21">
          <mxGeometry width="50" height="50" relative="1" as="geometry">
            <mxPoint x="20" y="90" as="sourcePoint" />
            <mxPoint x="20" as="targetPoint" />
          </mxGeometry>
        </mxCell>
        <mxCell id="w8vvWGGkFElnzvA0du0P-11" value="" style="endArrow=none;html=1;rounded=0;" edge="1" parent="w8vvWGGkFElnzvA0du0P-21">
          <mxGeometry width="50" height="50" relative="1" as="geometry">
            <mxPoint x="20" y="20" as="sourcePoint" />
            <mxPoint x="40" as="targetPoint" />
          </mxGeometry>
        </mxCell>
        <mxCell id="w8vvWGGkFElnzvA0du0P-12" value="" style="endArrow=none;html=1;rounded=0;" edge="1" parent="w8vvWGGkFElnzvA0du0P-21">
          <mxGeometry width="50" height="50" relative="1" as="geometry">
            <mxPoint x="20" y="20" as="sourcePoint" />
            <mxPoint as="targetPoint" />
          </mxGeometry>
        </mxCell>
        <mxCell id="w8vvWGGkFElnzvA0du0P-28" value="&lt;i&gt;wifi&lt;/i&gt;" style="text;html=1;align=center;verticalAlign=middle;whiteSpace=wrap;rounded=0;" vertex="1" parent="w8vvWGGkFElnzvA0du0P-21">
          <mxGeometry x="10" y="20" width="60" height="30" as="geometry" />
        </mxCell>
        <mxCell id="w8vvWGGkFElnzvA0du0P-27" value="&lt;i&gt;wifi&lt;/i&gt;" style="text;html=1;align=center;verticalAlign=middle;whiteSpace=wrap;rounded=0;" vertex="1" parent="1">
          <mxGeometry x="747" y="555" width="60" height="30" as="geometry" />
        </mxCell>
        <mxCell id="w8vvWGGkFElnzvA0du0P-31" value="Rf-Test-BJH" style="text;html=1;align=center;verticalAlign=middle;whiteSpace=wrap;rounded=0;" vertex="1" parent="1">
          <mxGeometry x="610" y="410" width="70" height="30" as="geometry" />
        </mxCell>
        <mxCell id="w8vvWGGkFElnzvA0du0P-32" value="" style="endArrow=none;html=1;rounded=0;" edge="1" parent="1">
          <mxGeometry width="50" height="50" relative="1" as="geometry">
            <mxPoint x="220" y="510" as="sourcePoint" />
            <mxPoint x="220" y="410" as="targetPoint" />
          </mxGeometry>
        </mxCell>
        <mxCell id="w8vvWGGkFElnzvA0du0P-36" value="RFOut" style="text;html=1;align=center;verticalAlign=middle;whiteSpace=wrap;rounded=0;" vertex="1" parent="1">
          <mxGeometry x="216" y="442" width="60" height="30" as="geometry" />
        </mxCell>
        <mxCell id="w8vvWGGkFElnzvA0du0P-37" value="RF generator" style="text;html=1;align=center;verticalAlign=middle;whiteSpace=wrap;rounded=0;" vertex="1" parent="1">
          <mxGeometry x="137" y="362" width="166" height="30" as="geometry" />
        </mxCell>
        <mxCell id="w8vvWGGkFElnzvA0du0P-38" value="RFin" style="text;html=1;align=center;verticalAlign=middle;whiteSpace=wrap;rounded=0;" vertex="1" parent="1">
          <mxGeometry x="530" y="439" width="60" height="30" as="geometry" />
        </mxCell>
        <mxCell id="w8vvWGGkFElnzvA0du0P-39" value="RFin" style="text;html=1;align=center;verticalAlign=middle;whiteSpace=wrap;rounded=0;" vertex="1" parent="1">
          <mxGeometry x="368" y="439" width="60" height="30" as="geometry" />
        </mxCell>
        <mxCell id="w8vvWGGkFElnzvA0du0P-40" value="RF frequencymeter" style="text;html=1;align=center;verticalAlign=middle;whiteSpace=wrap;rounded=0;" vertex="1" parent="1">
          <mxGeometry x="292" y="362" width="166" height="30" as="geometry" />
        </mxCell>
        <mxCell id="w8vvWGGkFElnzvA0du0P-41" value="RF powermeter" style="text;html=1;align=center;verticalAlign=middle;whiteSpace=wrap;rounded=0;" vertex="1" parent="1">
          <mxGeometry x="464" y="362" width="166" height="30" as="geometry" />
        </mxCell>
        <mxCell id="w8vvWGGkFElnzvA0du0P-45" value="" style="group" vertex="1" connectable="0" parent="1">
          <mxGeometry x="200" y="469" width="350" height="71" as="geometry" />
        </mxCell>
        <mxCell id="w8vvWGGkFElnzvA0du0P-43" value="" style="curved=1;endArrow=none;html=1;rounded=0;endFill=0;" edge="1" parent="w8vvWGGkFElnzvA0du0P-45">
          <mxGeometry width="50" height="50" relative="1" as="geometry">
            <mxPoint y="30" as="sourcePoint" />
            <mxPoint x="348.90965732087227" y="30" as="targetPoint" />
            <Array as="points">
              <mxPoint x="54.51713395638629" y="60" />
              <mxPoint x="130.8411214953271" y="60" />
              <mxPoint x="207.16510903426789" />
              <mxPoint x="294.39252336448595" y="10" />
            </Array>
          </mxGeometry>
        </mxCell>
        <mxCell id="w8vvWGGkFElnzvA0du0P-44" value="" style="curved=1;endArrow=none;html=1;rounded=0;endFill=0;" edge="1" parent="w8vvWGGkFElnzvA0du0P-45">
          <mxGeometry width="50" height="50" relative="1" as="geometry">
            <mxPoint x="1.0903426791277258" y="41" as="sourcePoint" />
            <mxPoint x="349.99999999999994" y="41" as="targetPoint" />
            <Array as="points">
              <mxPoint x="55.60747663551401" y="71" />
              <mxPoint x="131.93146417445482" y="71" />
              <mxPoint x="208.25545171339562" y="11" />
              <mxPoint x="295.4828660436137" y="21" />
            </Array>
          </mxGeometry>
        </mxCell>
        <mxCell id="w8vvWGGkFElnzvA0du0P-46" value="" style="endArrow=none;html=1;rounded=0;" edge="1" parent="1">
          <mxGeometry width="50" height="50" relative="1" as="geometry">
            <mxPoint x="330" y="620" as="sourcePoint" />
            <mxPoint x="330" y="530" as="targetPoint" />
          </mxGeometry>
        </mxCell>
        <mxCell id="w8vvWGGkFElnzvA0du0P-47" value="" style="endArrow=none;html=1;rounded=0;" edge="1" parent="1">
          <mxGeometry width="50" height="50" relative="1" as="geometry">
            <mxPoint x="379.5" y="620" as="sourcePoint" />
            <mxPoint x="380" y="510" as="targetPoint" />
          </mxGeometry>
        </mxCell>
        <mxCell id="w8vvWGGkFElnzvA0du0P-48" value="" style="endArrow=none;html=1;rounded=0;" edge="1" parent="1">
          <mxGeometry width="50" height="50" relative="1" as="geometry">
            <mxPoint x="420" y="620" as="sourcePoint" />
            <mxPoint x="420" y="490" as="targetPoint" />
          </mxGeometry>
        </mxCell>
        <mxCell id="w8vvWGGkFElnzvA0du0P-49" value="" style="group" vertex="1" connectable="0" parent="1">
          <mxGeometry x="620" y="555" width="197" height="165" as="geometry" />
        </mxCell>
        <mxCell id="w8vvWGGkFElnzvA0du0P-18" value="" style="group" vertex="1" connectable="0" parent="w8vvWGGkFElnzvA0du0P-49">
          <mxGeometry width="120" height="165" as="geometry" />
        </mxCell>
        <mxCell id="w8vvWGGkFElnzvA0du0P-19" value="" style="rounded=0;whiteSpace=wrap;html=1;perimeterSpacing=1;strokeWidth=5;strokeColor=#ff0000;" vertex="1" parent="w8vvWGGkFElnzvA0du0P-18">
          <mxGeometry width="120" height="165" as="geometry" />
        </mxCell>
        <mxCell id="w8vvWGGkFElnzvA0du0P-20" value="PC" style="text;html=1;align=center;verticalAlign=middle;whiteSpace=wrap;rounded=0;perimeterSpacing=10;" vertex="1" parent="w8vvWGGkFElnzvA0du0P-18">
          <mxGeometry x="30" y="41.25" width="60" height="82.5" as="geometry" />
        </mxCell>
        <mxCell id="w8vvWGGkFElnzvA0du0P-22" value="" style="group" vertex="1" connectable="0" parent="w8vvWGGkFElnzvA0du0P-49">
          <mxGeometry x="167" width="30" height="110" as="geometry" />
        </mxCell>
        <mxCell id="w8vvWGGkFElnzvA0du0P-23" value="" style="endArrow=none;html=1;rounded=0;" edge="1" parent="w8vvWGGkFElnzvA0du0P-22">
          <mxGeometry width="50" height="50" relative="1" as="geometry">
            <mxPoint x="15" y="110" as="sourcePoint" />
            <mxPoint x="15" as="targetPoint" />
          </mxGeometry>
        </mxCell>
        <mxCell id="w8vvWGGkFElnzvA0du0P-24" value="" style="endArrow=none;html=1;rounded=0;" edge="1" parent="w8vvWGGkFElnzvA0du0P-22">
          <mxGeometry width="50" height="50" relative="1" as="geometry">
            <mxPoint x="15" y="24.44444444444444" as="sourcePoint" />
            <mxPoint x="30" as="targetPoint" />
          </mxGeometry>
        </mxCell>
        <mxCell id="w8vvWGGkFElnzvA0du0P-25" value="" style="endArrow=none;html=1;rounded=0;" edge="1" parent="w8vvWGGkFElnzvA0du0P-22">
          <mxGeometry width="50" height="50" relative="1" as="geometry">
            <mxPoint x="15" y="24.44444444444444" as="sourcePoint" />
            <mxPoint as="targetPoint" />
          </mxGeometry>
        </mxCell>
        <mxCell id="w8vvWGGkFElnzvA0du0P-26" value="" style="endArrow=none;html=1;rounded=0;exitX=0.975;exitY=0.661;exitDx=0;exitDy=0;exitPerimeter=0;" edge="1" parent="w8vvWGGkFElnzvA0du0P-49" source="w8vvWGGkFElnzvA0du0P-19">
          <mxGeometry width="50" height="50" relative="1" as="geometry">
            <mxPoint x="-190" y="357.5" as="sourcePoint" />
            <mxPoint x="180" y="110" as="targetPoint" />
          </mxGeometry>
        </mxCell>
        <mxCell id="w8vvWGGkFElnzvA0du0P-50" value="&lt;div style=&quot;&quot;&gt;&lt;u style=&quot;background-color: initial;&quot;&gt;&lt;b&gt;RF generator :&amp;nbsp;&lt;/b&gt;&lt;/u&gt;&lt;/div&gt;&lt;div style=&quot;text-align: center;&quot;&gt;&lt;u style=&quot;background-color: initial;&quot;&gt;&lt;b&gt;&lt;br&gt;&lt;/b&gt;&lt;/u&gt;&lt;/div&gt;&lt;div style=&quot;&quot;&gt;&lt;span style=&quot;background-color: initial;&quot;&gt;Expected characteristics :&amp;nbsp;&lt;/span&gt;&lt;/div&gt;&lt;div&gt;- Pout = [-70dBm; 10dBm]&lt;/div&gt;&lt;div&gt;- Pout step = 0,1dB&lt;/div&gt;&lt;div&gt;- Frequency = 0-5GHz&lt;/div&gt;&lt;div&gt;&lt;br&gt;&lt;/div&gt;&lt;div&gt;TBD :&amp;nbsp;&lt;/div&gt;&lt;div&gt;- out modulation ?&lt;/div&gt;&lt;div&gt;&lt;br&gt;&lt;/div&gt;" style="text;html=1;align=left;verticalAlign=middle;whiteSpace=wrap;rounded=0;" vertex="1" parent="1">
          <mxGeometry x="40" y="800" width="270" height="170" as="geometry" />
        </mxCell>
        <mxCell id="w8vvWGGkFElnzvA0du0P-51" value="&lt;div style=&quot;&quot;&gt;&lt;u style=&quot;background-color: initial;&quot;&gt;&lt;b&gt;RF frequencymeter :&amp;nbsp;&lt;/b&gt;&lt;/u&gt;&lt;/div&gt;&lt;div style=&quot;text-align: center;&quot;&gt;&lt;u style=&quot;background-color: initial;&quot;&gt;&lt;b&gt;&lt;br&gt;&lt;/b&gt;&lt;/u&gt;&lt;/div&gt;&lt;div style=&quot;&quot;&gt;&lt;span style=&quot;background-color: initial;&quot;&gt;Expected characteristics :&amp;nbsp;&lt;/span&gt;&lt;/div&gt;&lt;div&gt;- Frequency = 0-5GHz&lt;/div&gt;&lt;div&gt;-Resolution : &amp;lt; 1hz&lt;/div&gt;&lt;div&gt;&lt;br&gt;&lt;/div&gt;&lt;div&gt;TBD :&amp;nbsp;&lt;/div&gt;&lt;div&gt;- need RF-front-end ?&lt;/div&gt;&lt;div&gt;- need prescaler&lt;/div&gt;&lt;div&gt;&lt;br&gt;&lt;/div&gt;" style="text;html=1;align=left;verticalAlign=middle;whiteSpace=wrap;rounded=0;" vertex="1" parent="1">
          <mxGeometry x="200" y="800" width="270" height="170" as="geometry" />
        </mxCell>
        <mxCell id="w8vvWGGkFElnzvA0du0P-52" value="&lt;div style=&quot;&quot;&gt;&lt;u style=&quot;background-color: initial;&quot;&gt;&lt;b&gt;RF powermeter :&amp;nbsp;&lt;/b&gt;&lt;/u&gt;&lt;/div&gt;&lt;div style=&quot;text-align: center;&quot;&gt;&lt;u style=&quot;background-color: initial;&quot;&gt;&lt;b&gt;&lt;br&gt;&lt;/b&gt;&lt;/u&gt;&lt;/div&gt;&lt;div style=&quot;&quot;&gt;&lt;span style=&quot;background-color: initial;&quot;&gt;Expected characteristics :&amp;nbsp;&lt;/span&gt;&lt;/div&gt;&lt;div&gt;- Pin = [-70dBm; 10dBm]&lt;/div&gt;&lt;div&gt;- Pout step = 0,1dB&lt;/div&gt;&lt;div&gt;- Frequency = 0-5GHz&lt;/div&gt;&lt;div&gt;&lt;br&gt;&lt;/div&gt;&lt;div&gt;TBD :&amp;nbsp;&lt;/div&gt;&lt;div&gt;- need RF front-end ?&lt;/div&gt;&lt;div&gt;&lt;br&gt;&lt;/div&gt;" style="text;html=1;align=left;verticalAlign=middle;whiteSpace=wrap;rounded=0;" vertex="1" parent="1">
          <mxGeometry x="360" y="800" width="230" height="170" as="geometry" />
        </mxCell>
        <mxCell id="w8vvWGGkFElnzvA0du0P-53" value="&lt;div style=&quot;&quot;&gt;&lt;u style=&quot;background-color: initial;&quot;&gt;&lt;b&gt;ESP32 :&amp;nbsp;&lt;/b&gt;&lt;/u&gt;&lt;/div&gt;&lt;div style=&quot;text-align: center;&quot;&gt;&lt;u style=&quot;background-color: initial;&quot;&gt;&lt;b&gt;&lt;br&gt;&lt;/b&gt;&lt;/u&gt;&lt;/div&gt;&lt;div style=&quot;&quot;&gt;&lt;span style=&quot;background-color: initial;&quot;&gt;Expected characteristics :&amp;nbsp;&lt;/span&gt;&lt;/div&gt;&lt;div&gt;- web server&lt;/div&gt;&lt;div&gt;- very low measurement latency&lt;/div&gt;&lt;div&gt;&lt;br&gt;&lt;/div&gt;&lt;div&gt;&lt;br&gt;&lt;/div&gt;&lt;div&gt;&lt;br&gt;&lt;/div&gt;" style="text;html=1;align=left;verticalAlign=middle;whiteSpace=wrap;rounded=0;" vertex="1" parent="1">
          <mxGeometry x="530" y="800" width="230" height="170" as="geometry" />
        </mxCell>
        <mxCell id="w8vvWGGkFElnzvA0du0P-54" value="&lt;div style=&quot;&quot;&gt;&lt;u style=&quot;background-color: initial;&quot;&gt;&lt;b&gt;Power supply :&amp;nbsp;&lt;/b&gt;&lt;/u&gt;&lt;/div&gt;&lt;div style=&quot;text-align: center;&quot;&gt;&lt;u style=&quot;background-color: initial;&quot;&gt;&lt;b&gt;&lt;br&gt;&lt;/b&gt;&lt;/u&gt;&lt;/div&gt;&lt;div style=&quot;&quot;&gt;&lt;span style=&quot;background-color: initial;&quot;&gt;Expected characteristics :&amp;nbsp;&lt;/span&gt;&lt;/div&gt;&lt;div&gt;- input voltage : 220V/50z&lt;/div&gt;&lt;div&gt;-low consumption (TBD)&lt;/div&gt;&lt;div&gt;&lt;br&gt;&lt;/div&gt;&lt;div&gt;&lt;br&gt;&lt;/div&gt;" style="text;html=1;align=left;verticalAlign=middle;whiteSpace=wrap;rounded=0;" vertex="1" parent="1">
          <mxGeometry x="530" y="890" width="230" height="170" as="geometry" />
        </mxCell>
        <mxCell id="w8vvWGGkFElnzvA0du0P-55" value="" style="endArrow=none;html=1;rounded=0;entryX=0.5;entryY=1;entryDx=0;entryDy=0;exitX=0.5;exitY=0;exitDx=0;exitDy=0;" edge="1" parent="1" source="w8vvWGGkFElnzvA0du0P-4" target="w8vvWGGkFElnzvA0du0P-2">
          <mxGeometry width="50" height="50" relative="1" as="geometry">
            <mxPoint x="390" y="610" as="sourcePoint" />
            <mxPoint x="440" y="560" as="targetPoint" />
          </mxGeometry>
        </mxCell>
        <mxCell id="w8vvWGGkFElnzvA0du0P-57" value="" style="endArrow=none;html=1;rounded=0;" edge="1" parent="1">
          <mxGeometry width="50" height="50" relative="1" as="geometry">
            <mxPoint x="320" y="230" as="sourcePoint" />
            <mxPoint x="220" y="230" as="targetPoint" />
          </mxGeometry>
        </mxCell>
        <mxCell id="w8vvWGGkFElnzvA0du0P-58" value="" style="endArrow=none;html=1;rounded=0;entryX=0.5;entryY=1;entryDx=0;entryDy=0;" edge="1" parent="1" target="w8vvWGGkFElnzvA0du0P-5">
          <mxGeometry width="50" height="50" relative="1" as="geometry">
            <mxPoint x="380" y="490" as="sourcePoint" />
            <mxPoint x="375" y="420" as="targetPoint" />
          </mxGeometry>
        </mxCell>
        <mxCell id="w8vvWGGkFElnzvA0du0P-59" value="" style="endArrow=none;html=1;rounded=0;" edge="1" parent="1">
          <mxGeometry width="50" height="50" relative="1" as="geometry">
            <mxPoint x="539" y="490" as="sourcePoint" />
            <mxPoint x="540" y="410" as="targetPoint" />
          </mxGeometry>
        </mxCell>
        <mxCell id="w8vvWGGkFElnzvA0du0P-60" value="" style="endArrow=none;html=1;rounded=0;" edge="1" parent="1">
          <mxGeometry width="50" height="50" relative="1" as="geometry">
            <mxPoint x="320" y="320" as="sourcePoint" />
            <mxPoint x="220" y="320" as="targetPoint" />
          </mxGeometry>
        </mxCell>
        <mxCell id="w8vvWGGkFElnzvA0du0P-61" value="" style="endArrow=none;html=1;rounded=0;entryX=0.5;entryY=0;entryDx=0;entryDy=0;" edge="1" parent="1" target="w8vvWGGkFElnzvA0du0P-6">
          <mxGeometry width="50" height="50" relative="1" as="geometry">
            <mxPoint x="320" y="320" as="sourcePoint" />
            <mxPoint x="440" y="560" as="targetPoint" />
            <Array as="points">
              <mxPoint x="540" y="320" />
            </Array>
          </mxGeometry>
        </mxCell>
        <mxCell id="w8vvWGGkFElnzvA0du0P-62" value="" style="endArrow=none;html=1;rounded=0;entryX=0.5;entryY=0;entryDx=0;entryDy=0;" edge="1" parent="1" target="w8vvWGGkFElnzvA0du0P-5">
          <mxGeometry width="50" height="50" relative="1" as="geometry">
            <mxPoint x="380" y="320" as="sourcePoint" />
            <mxPoint x="440" y="560" as="targetPoint" />
          </mxGeometry>
        </mxCell>
      </root>
    </mxGraphModel>
  </diagram>
</mxfile>
